<svg width="116" height="16" viewBox="0 0 116 16" fill="none" xmlns="http://www.w3.org/2000/svg">
<path d="M39.335 15.6713C39.7664 15.1513 39.4353 14.6738 38.6433 14.6738C38.2539 14.6738 37.104 14.8297 36.0878 15.0201C33.2879 15.5449 32.0449 14.9534 32.0449 13.0962C32.0449 12.4758 32.2039 12.1299 32.7079 11.6542C33.3337 11.0634 33.3708 10.9323 33.3708 9.31471C33.3708 7.7484 33.3328 7.60105 32.9288 7.60105C32.6283 7.60105 32.4869 7.7484 32.4869 8.06152C32.4869 8.66605 32.0267 8.50339 31.603 7.74909C31.3079 7.22387 31.3084 7.09217 31.6071 6.55119C31.7916 6.21688 32.2639 5.80109 32.6567 5.62719C33.3663 5.31302 33.3708 5.30097 33.3708 3.71688C33.3708 2.00483 33.0578 1.53606 32.3723 2.22166C31.8972 2.69688 31.6858 2.41507 32.0321 1.76798C32.6147 0.679027 34.178 0.431419 35.0382 1.29181C35.5796 1.83326 35.5807 1.84348 35.5807 6.4601C35.5807 10.854 35.6022 11.0915 36.0098 11.1981C36.2459 11.2599 36.4945 11.2549 36.5623 11.1871C36.6301 11.1193 36.6856 8.79276 36.6856 6.01707C36.6856 2.79994 36.7657 0.970354 36.9065 0.970354C37.0281 0.970354 37.1275 1.28072 37.1275 1.66005V2.34975L38.1292 1.52883L39.1308 0.7079L39.9004 1.29499C40.4115 1.68493 40.8173 1.83533 41.1086 1.74287C41.6195 1.58066 41.7196 2.02317 41.2157 2.21657C40.9376 2.32329 40.8842 3.00062 40.8842 6.42007C40.8842 12.3418 40.7117 12.5423 36.3832 11.6519C35.3895 11.4475 34.3174 11.3498 33.9849 11.4335C33.211 11.6282 32.8278 12.3037 33.1499 12.9057C33.4443 13.4559 34.3228 13.4803 36.3956 12.9959C39.0618 12.3728 40.8842 12.8763 40.8842 14.2363C40.8842 14.9977 40.1062 16 39.5152 16C39.1394 16 39.1086 15.944 39.335 15.6713ZM38.2164 10.7761C38.5591 10.3403 38.6744 9.87389 38.6744 8.92317C38.6744 7.819 38.6137 7.63674 38.2111 7.53143C37.2659 7.2842 37.1275 7.5356 37.1275 9.5034C37.1275 11.5595 37.3738 11.8474 38.2164 10.7761ZM38.6744 6.60644C38.6744 6.1223 38.5786 6.05387 37.9009 6.05387C37.2233 6.05387 37.1275 6.1223 37.1275 6.60644C37.1275 7.09059 37.2233 7.159 37.9009 7.159C38.5786 7.159 38.6744 7.09059 38.6744 6.60644ZM38.5639 4.19926C38.5639 2.82138 38.2201 2.30531 37.489 2.5859C37.2049 2.69494 37.1275 3.03667 37.1275 4.18224V5.63984L37.8457 5.57058L38.5639 5.50133V4.19926ZM111.267 14.539C110.954 14.297 110.549 14.2335 109.88 14.3216C108.99 14.4387 108.948 14.4203 109.169 14.0073C109.765 12.8943 111.338 12.4856 112.582 13.1209C113.627 13.6542 113.92 13.462 113.717 12.3773C113.529 11.3776 113.334 11.2707 112.534 11.7298C111.9 12.094 111.859 12.0874 110.858 11.4545L109.831 10.8059L109.831 8.7001C109.83 6.3664 109.527 5.5593 108.727 5.76839C108.055 5.94427 108.191 5.73204 109.163 5.08864C110.259 4.36289 110.39 4.36469 111.049 5.11454C111.531 5.66136 111.585 5.92537 111.591 7.745L111.598 9.76765L112.384 10.2315C112.816 10.4867 113.214 10.6954 113.268 10.6954C113.322 10.6954 113.366 9.68376 113.366 8.44731C113.366 6.61906 113.294 6.11964 112.98 5.77313C112.61 5.36407 112.621 5.32595 113.256 4.81987L113.917 4.2927L114.58 4.95571C115.224 5.59883 115.249 5.6998 115.394 8.32282C115.477 9.81009 115.609 11.3268 115.688 11.6933C115.825 12.3289 115.747 12.4178 113.985 13.6272C112.969 14.3244 112.041 14.8917 111.923 14.8878C111.805 14.8836 111.51 14.727 111.267 14.539ZM1.42843 12.7628C0.394936 11.6475 0.795238 10.2434 2.34181 9.55914C3.30352 9.13364 3.31733 9.11222 3.31733 8.0458C3.31733 7.45084 3.21353 6.8999 3.08666 6.82148C2.78865 6.63726 2.17561 7.14164 2.35151 7.42632C2.42604 7.54693 2.30413 7.60856 2.07742 7.56489C1.85284 7.52162 1.57467 7.21771 1.45927 6.88948C1.1635 6.0483 1.59925 5.21877 2.54438 4.82379C3.24104 4.53265 3.31733 4.41538 3.31733 3.63543C3.31733 2.69681 2.83824 2.01876 2.31651 2.21899C2.13772 2.28766 1.99144 2.43259 1.99144 2.54114C1.99144 2.6497 1.892 2.73851 1.77046 2.73851C1.33924 2.73851 1.55769 1.60509 2.09188 1.07079C2.82634 0.336197 4.03967 0.329803 4.70901 1.05701C4.97667 1.3478 6.02914 2.9889 7.04783 4.70391C8.06652 6.41891 8.98635 7.82209 9.09191 7.82209C9.19746 7.82209 9.28383 6.77908 9.28383 5.5043V3.18652L8.4748 2.84841C8.02984 2.66246 7.45805 2.5758 7.20416 2.65584C6.86788 2.76185 7.01027 2.50777 7.72853 1.72009C8.90526 0.429623 8.92 0.421361 9.27772 0.85246C9.64064 1.28983 10.8048 1.2949 10.9718 0.859981C11.1744 0.331753 11.4936 0.475831 11.4936 1.09554C11.4936 1.95178 11.0985 2.52065 10.2605 2.87087L9.50481 3.18667V7.73312C9.50481 11.1176 9.43843 12.2574 9.24513 12.193C8.98199 12.1053 8.41276 11.2038 5.54318 6.33034C4.66634 4.84119 3.85654 3.62279 3.74362 3.62279C3.62784 3.62279 3.53831 4.86123 3.53831 6.46258V9.30235L4.47748 9.70685C4.99402 9.92931 5.59767 10.0935 5.81892 10.0718C6.12951 10.0412 6.02879 10.2589 5.37695 11.0271C4.73176 11.7875 4.42853 11.9898 4.09076 11.8853C3.84768 11.8101 3.35047 11.7354 2.98585 11.7194C2.12161 11.6813 1.93962 12.4686 2.69098 12.995L3.19468 13.3478H2.58251C2.20437 13.3478 1.76317 13.1241 1.42843 12.7628ZM12.867 11.4396C11.9159 10.7737 11.6632 10.684 11.3859 10.9141C10.9619 11.2661 10.9645 10.9398 11.3902 10.3769C11.6177 10.076 11.7146 9.37355 11.7146 8.02548V6.10314L13.4994 5.17444C14.481 4.66366 15.3148 4.27961 15.3524 4.32097C15.7253 4.73176 16.7604 6.59766 16.684 6.72139C16.6293 6.80983 15.8866 7.304 15.0336 7.81955C14.1263 8.36784 13.4827 8.90689 13.4829 9.11832C13.4831 9.31711 13.9304 9.76228 14.4769 10.1076L15.4704 10.7354L16.1508 10.1628C16.7773 9.63558 17.2392 9.43743 17.2392 9.69592C17.2392 9.83656 14.3179 12.2426 14.1471 12.2426C14.0738 12.2426 13.4978 11.8812 12.867 11.4396ZM14.3876 7.88494C15.1592 7.42903 15.1655 7.3631 14.5321 6.38505C13.7819 5.22655 13.4825 5.38428 13.4825 6.93798C13.4825 7.66736 13.5417 8.26412 13.6141 8.26412C13.6865 8.26412 14.0346 8.09348 14.3876 7.88494ZM19.67 11.8005C19.3661 11.5628 18.8783 11.3661 18.586 11.3634C18.0852 11.3584 18.0757 11.3351 18.4203 10.9543C18.6983 10.647 18.786 10.1134 18.786 8.72949C18.786 6.84751 18.6464 6.3857 17.7519 5.31039C17.1378 4.57211 17.2203 3.98371 18.0428 3.23582C18.619 2.71189 19.5594 2.49547 19.0512 3.00374C18.5814 3.47364 18.7657 4.02807 19.67 4.86484L20.5539 5.68284V7.95304C20.5539 10.2066 20.5586 10.2266 21.1957 10.6803C21.5487 10.9317 21.8967 11.1374 21.9691 11.1374C22.2429 11.1374 22.1062 6.14792 21.8245 5.85889C21.6023 5.63084 21.6953 5.45156 22.3007 4.94114C23.1096 4.25923 23.4066 4.29283 24.1863 5.15453C24.5107 5.51311 24.5488 5.68295 24.3495 5.88228C24.1878 6.04403 24.0896 6.91296 24.0896 8.18177C24.0896 10.1218 24.118 10.2436 24.6718 10.6793C24.9921 10.9313 25.3401 11.1374 25.4453 11.1374C25.7598 11.1374 25.68 6.18645 25.3602 5.86228C25.1386 5.63762 25.2279 5.45301 25.812 4.92832C26.4857 4.32315 26.5753 4.29907 27.0128 4.60557C27.3016 4.80792 27.7062 4.88398 28.0526 4.80109L28.6197 4.6654L28.1305 5.19962C27.6978 5.67214 27.6339 6.01398 27.578 8.15936L27.5148 10.5849L25.9679 11.4067C24.169 12.3625 23.9052 12.3983 23.1339 11.7915L22.5605 11.3404L21.6765 11.7915C20.5899 12.3459 20.3684 12.3469 19.67 11.8005ZM51.3808 11.6968C51.0162 11.3979 50.4693 11.1445 50.1654 11.1338L49.613 11.1142L50.1102 10.7673C50.5681 10.4478 50.6074 10.2502 50.6074 8.26421C50.6074 6.64604 50.5271 6.04134 50.2856 5.84088C50.1086 5.69396 49.86 5.63793 49.7331 5.71634C49.6063 5.79478 49.5025 5.7592 49.5025 5.6374C49.5025 5.51555 49.9232 5.16494 50.4374 4.85826L51.3722 4.30066L51.938 4.84281L52.5038 5.38498L52.9851 4.90359C53.3295 4.55911 53.7512 4.41686 54.4677 4.40339C55.353 4.38677 55.469 4.43998 55.469 4.86321C55.469 5.49742 54.806 6.28975 54.2536 6.31574C54.0105 6.32719 53.5381 6.26219 53.2039 6.17125L52.5962 6.00596V8.10259C52.5962 10.4183 52.7912 10.8213 53.7905 10.5704C54.1059 10.4912 54.3641 10.4776 54.3641 10.5402C54.3641 10.6423 52.231 12.2441 52.0985 12.2415C52.0684 12.2409 51.7454 11.9958 51.3808 11.6968ZM60.64 10.3115C59.9229 9.24939 59.2627 8.26573 59.173 8.12557C59.0293 7.90096 61.0337 4.50671 61.3101 4.50671C61.3676 4.50671 61.6554 4.61641 61.9496 4.75047C62.3459 4.93111 62.6111 4.92646 62.9733 4.73259C63.6758 4.35654 63.798 4.63087 63.3218 5.5153C62.8506 6.39027 62.1013 6.67738 61.1883 6.33271C60.8522 6.2058 60.5253 6.15379 60.462 6.21712C60.3987 6.28044 61.0144 7.31404 61.8303 8.51398C62.9216 10.1189 63.416 10.6719 63.7003 10.6058C64.4999 10.4198 64.2688 10.8957 63.2384 11.557C62.6509 11.9341 62.1193 12.2426 62.057 12.2426C61.9947 12.2426 61.3571 11.3736 60.64 10.3115ZM71.3796 11.6478C70.2909 11.0616 69.2471 11.0785 68.0417 11.702C67.6899 11.884 67.402 11.9771 67.402 11.909C67.402 11.5586 68.2003 10.6478 68.8704 10.2336L69.6302 9.76389L69.5657 8.18518C69.5029 6.64742 69.487 6.60802 68.9488 6.66594C68.645 6.69869 68.2859 6.8727 68.151 7.05273C67.7705 7.56044 67.6229 7.44533 67.6229 6.64073C67.6229 5.8382 68.0368 5.33764 69.0044 4.96964C69.5859 4.74854 69.6117 4.67378 69.6117 3.21313C69.6117 2.14911 69.5147 1.60697 69.2909 1.4212C68.9498 1.1381 68.0649 1.30203 68.0649 1.64833C68.0649 1.76169 67.9654 1.85445 67.8439 1.85445C67.4002 1.85445 67.6385 0.990141 68.2052 0.544347C69.1721 -0.216346 70.8367 0.0508348 71.3557 1.05003C71.5025 1.33256 71.6235 3.12332 71.6562 5.49851C71.7057 9.08369 71.749 9.4814 72.0978 9.5484C72.4562 9.61724 72.4845 9.28187 72.4845 4.965C72.4845 2.00721 72.5652 0.307284 72.7055 0.307284C72.827 0.307284 72.9265 0.555934 72.9265 0.859841C72.9265 1.5647 73.0144 1.55494 74.0491 0.735318L74.9038 0.0582269L75.683 0.680061L76.4622 1.3019V5.29138C76.4622 9.14517 76.5664 9.81133 77.1693 9.81133C77.2665 9.81133 77.3461 7.67291 77.3461 5.0593C77.3461 2.03864 77.4266 0.307284 77.5671 0.307284C77.6886 0.307284 77.7881 0.555934 77.7881 0.859841C77.7881 1.16376 77.8464 1.4124 77.9177 1.4124C77.9889 1.4124 78.4897 1.09461 79.0305 0.706205L80.0136 0L80.6611 0.650948L81.3085 1.3019L81.3424 5.28033L81.3763 9.25876L79.7479 10.5452C77.3231 12.4608 77.3495 12.4542 75.9168 11.5028C75.2482 11.0587 74.6417 10.6954 74.5691 10.6954C74.4966 10.6954 74.0125 11.0435 73.4933 11.469C72.9742 11.8945 72.51 12.2292 72.4617 12.2129C72.4134 12.1966 71.9266 11.9423 71.3796 11.6478ZM79.1518 10.3296C79.4677 10.0437 79.556 9.63629 79.556 8.46394C79.556 7.63901 79.4653 6.90804 79.3545 6.83955C79.2438 6.77105 78.8466 6.88951 78.472 7.1028C77.8293 7.4687 77.7908 7.56586 77.7895 8.82773C77.7878 10.5794 78.2783 11.1203 79.1518 10.3296ZM74.4734 8.12818C74.4734 7.35201 74.4188 6.71694 74.3519 6.71694C74.2851 6.71694 73.9371 6.86869 73.5785 7.05416C72.9684 7.36968 72.9265 7.47512 72.9265 8.69343C72.9265 10.126 73.1632 10.3896 73.9762 9.86205C74.4062 9.58302 74.4734 9.34875 74.4734 8.12818ZM74.4734 5.6814C74.4734 5.07666 74.4277 5.06775 73.5785 5.50699C73.1248 5.74166 72.9265 6.00942 72.9265 6.38752V6.93083L73.6999 6.56193C74.2549 6.29724 74.4734 6.0485 74.4734 5.6814ZM79.0587 6.32126C79.5611 5.99972 79.7523 5.16978 79.324 5.16978C79.1964 5.16978 78.7987 5.32152 78.4401 5.50699C77.988 5.7408 77.7881 6.00978 77.7881 6.38415C77.7881 6.96758 78.0708 6.9536 79.0587 6.32126ZM73.8214 4.83258C74.4066 4.52992 74.4734 4.38618 74.4734 3.43017C74.4734 2.27429 73.9053 1.46488 73.2662 1.71017C73.0022 1.81149 72.9265 2.21147 72.9265 3.50516C72.9265 4.4207 72.9811 5.16978 73.048 5.16978C73.1148 5.16978 73.4628 5.01804 73.8214 4.83258ZM78.9142 4.79055C79.4551 4.47093 79.5554 4.27127 79.5526 3.51965C79.5492 2.57684 79.4584 2.36942 78.8378 1.88257C78.1385 1.33409 77.7881 1.92401 77.7881 3.64963C77.7881 5.3012 77.8845 5.39889 78.9142 4.79055ZM84.1122 11.4764C83.2576 10.8687 82.9493 10.756 82.6213 10.9316C82.1252 11.1971 82.066 10.8671 82.5392 10.4743C82.7902 10.266 82.8706 9.70198 82.8706 8.15114V6.1031L84.6554 5.1744C85.6369 4.66363 86.4661 4.27957 86.4979 4.32094C87.1563 5.17766 87.9511 6.54151 87.8692 6.67409C87.8099 6.77006 87.0587 7.28955 86.1999 7.82853C84.5528 8.86223 84.3221 9.28793 85.1357 9.79187C85.4092 9.96125 85.836 10.2317 86.0841 10.3929C86.4796 10.6497 86.6367 10.6138 87.3557 10.1021C88.7792 9.0891 88.4812 9.70638 86.9217 11.001C86.0993 11.6838 85.373 12.2425 85.3079 12.2425C85.2428 12.2425 84.7047 11.8977 84.1122 11.4764ZM85.5436 7.8849C86.3152 7.42899 86.3216 7.36306 85.6882 6.38501C84.9379 5.22651 84.6385 5.38423 84.6385 6.93793C84.6385 7.66731 84.6977 8.26409 84.7702 8.26409C84.8426 8.26409 85.1906 8.09345 85.5436 7.8849ZM90.5157 11.4507C89.6672 10.8027 89.4196 10.7081 89.1527 10.9296C88.6762 11.3252 88.4819 10.9891 88.9122 10.5135C89.1956 10.2003 89.2801 9.65908 89.2834 8.13616L89.2876 6.16435L91.0899 5.20435L92.8922 4.24435L93.2553 4.72578C93.9309 5.62163 94.4743 6.78983 94.2506 6.86548C93.5731 7.09458 91.1574 8.87145 91.1574 9.14066C91.1574 9.31558 91.5706 9.74917 92.0757 10.1042L92.9939 10.7497L93.7943 10.1391C94.2345 9.80334 94.6582 9.59219 94.7359 9.66992C94.8137 9.74769 94.8358 9.84401 94.7852 9.88405C94.7346 9.92406 94.0665 10.4711 93.3005 11.0997C92.5346 11.7282 91.828 12.2425 91.7302 12.2425C91.6324 12.2425 91.0859 11.8862 90.5157 11.4507ZM92.1226 7.85187C92.7028 7.4056 92.654 6.95769 91.9309 6.09224C91.3418 5.3872 91.047 5.66135 91.047 6.91413C91.047 8.36591 91.2379 8.53235 92.1226 7.85187ZM99.9415 10.1632C99.1819 9.02791 98.5604 7.98583 98.5604 7.8474C98.5604 7.61283 100.533 4.50667 100.682 4.50667C100.719 4.50667 101.004 4.62248 101.314 4.76402C101.756 4.9653 101.999 4.9572 102.429 4.72685C103.175 4.32757 103.266 4.50169 102.784 5.40396C102.286 6.33623 101.453 6.6837 100.541 6.33951C100.174 6.20092 99.8863 6.18163 99.8863 6.29565C99.8863 6.40753 100.508 7.43784 101.267 8.58523C102.585 10.5753 102.684 10.6705 103.422 10.6526C104.731 10.6208 104.748 10.5664 104.748 6.43793C104.748 3.2033 104.697 2.6395 104.385 2.411C104.067 2.1788 104.182 2.03007 105.298 1.23119C106 0.728424 106.66 0.370452 106.766 0.435695C106.871 0.500937 106.958 2.76643 106.958 5.47011C106.958 10.4964 107.041 11.0118 107.813 10.7685C108.011 10.7062 107.825 10.9599 107.4 11.3324C106.456 12.1589 106.083 12.1844 105.41 11.4684C104.736 10.7505 103.829 10.7999 102.609 11.621C102.101 11.9628 101.603 12.2391 101.504 12.2349C101.404 12.2307 100.701 11.2984 99.9415 10.1632ZM43.8218 11.3054C43.0437 10.7359 42.8368 10.6713 42.5512 10.9083C42.3636 11.0641 42.2101 11.0921 42.2101 10.9705C42.2101 10.8489 42.3592 10.6257 42.5415 10.4743C42.7921 10.2663 42.873 9.70413 42.873 8.17049V6.1418L44.5039 5.21373C45.4009 4.70329 46.2104 4.28565 46.3029 4.28565C46.3954 4.28565 46.9576 4.65674 47.5522 5.11029L48.6333 5.93493L48.5707 8.03346L48.508 10.132L46.9694 11.0768C46.1231 11.5964 45.2779 12.0134 45.0911 12.0036C44.9042 11.9937 44.3331 11.6795 43.8218 11.3054ZM46.6297 8.72415V6.53194L45.8854 6.07186C45.4761 5.81882 45.0783 5.61179 45.0015 5.61179C44.9247 5.61179 44.8632 6.58154 44.8647 7.76677L44.8677 9.92175L45.583 10.4053C45.9764 10.6713 46.3728 10.8951 46.464 10.9026C46.5552 10.9101 46.6297 9.92987 46.6297 8.72415ZM57.1263 11.4553C56.7617 11.1526 56.2894 10.9479 56.0767 11.0005C55.549 11.1308 55.5873 10.7658 56.1319 10.4743C56.5467 10.2523 56.5739 10.0115 56.5739 6.56077C56.5739 3.44453 56.5179 2.82195 56.2069 2.47825C56.0051 2.25519 55.8808 2.04228 55.9307 2.00511C57.0318 1.18478 58.3219 0.307208 58.4266 0.307208C58.5014 0.307208 58.5627 2.51238 58.5627 5.2076C58.5627 9.38171 58.6149 10.1657 58.9149 10.4973C59.1087 10.7114 59.407 10.8329 59.5779 10.7673C60.1539 10.5462 59.8943 10.8966 59.0639 11.461C58.0563 12.1457 57.9577 12.1456 57.1263 11.4553ZM96.5607 11.4578C96.1816 11.0542 95.8876 10.9296 95.5277 11.0199C94.9065 11.1759 94.872 10.8974 95.4666 10.526C95.8806 10.2674 95.9086 10.0106 95.9086 6.46353C95.9086 3.20552 95.8579 2.64002 95.5453 2.41141C95.2278 2.1792 95.3429 2.03048 96.4583 1.2316C97.1602 0.728841 97.8209 0.370873 97.9265 0.436115C98.032 0.501357 98.1184 2.76683 98.1184 5.47051C98.1184 10.4211 98.2114 11.0368 98.9187 10.7653C99.5133 10.5372 99.2061 11.0348 98.4502 11.5246C97.4714 12.1587 97.2104 12.1495 96.5607 11.4578Z" fill="#F7FAFD"/>
</svg>
