<svg width="173" height="18" viewBox="0 0 173 18" fill="none" xmlns="http://www.w3.org/2000/svg">
<path d="M115.559 17.8124C115.595 17.7092 116.752 13.6597 118.13 8.81338L120.635 0.00186661L146.567 6.09025e-05C167.248 -0.00174579 172.486 0.0361067 172.435 0.185683C172.4 0.288827 171.31 4.33924 170.013 9.18659L167.654 18H141.574C120.774 18 115.507 17.9619 115.559 17.8124ZM128.265 9.59386C128.62 8.35339 128.96 7.30756 129.021 7.2698C129.081 7.23204 129.38 7.89258 129.685 8.73765C130.733 11.6407 130.816 11.8493 130.92 11.8493C130.978 11.8493 131.386 10.6207 131.829 9.1192C132.271 7.61766 132.753 6.26753 132.9 6.1189C133.157 5.8586 133.146 5.84876 132.611 5.85097C132.21 5.85278 132.116 5.89234 132.272 5.99261C132.459 6.11167 132.408 6.42258 131.923 8.12803C131.611 9.22588 131.306 10.2152 131.246 10.3266C131.179 10.4502 130.818 9.60556 130.318 8.1583C129.869 6.85438 129.441 5.76774 129.369 5.74354C129.296 5.71933 128.943 6.72883 128.584 7.98683C128.225 9.24485 127.889 10.3583 127.837 10.4612C127.785 10.5641 127.413 9.6326 127.01 8.39111C126.386 6.47024 126.31 6.11294 126.496 5.99355C126.647 5.89724 126.439 5.85255 125.835 5.85097C125.098 5.84916 124.994 5.87942 125.199 6.03619C125.335 6.13933 125.842 7.37133 126.326 8.77397C127.387 11.8438 127.389 11.8493 127.516 11.8493C127.572 11.8493 127.909 10.8343 128.265 9.59386ZM140.73 11.7081C140.73 11.6305 140.664 11.5252 140.582 11.4742C140.35 11.329 140.385 6.04348 140.619 5.94802C140.721 5.90638 140.437 5.87232 139.989 5.87232C139.54 5.87232 139.257 5.90638 139.359 5.94802C139.594 6.04394 139.63 11.5493 139.396 11.5493C139.314 11.5493 139.247 11.6167 139.247 11.6993C139.247 11.7817 139.581 11.8493 139.989 11.8493C140.397 11.8493 140.73 11.7858 140.73 11.7081ZM148.472 11.6693C148.362 11.5582 148.294 11.0125 148.294 10.2441C148.294 9.02208 148.301 8.99901 148.658 8.99901C148.938 8.99901 149.224 9.26791 149.899 10.1644C150.946 11.5555 151.071 11.6685 151.702 11.7962L152.19 11.895L151.454 10.9345C151.049 10.4063 150.534 9.72417 150.31 9.4187L149.901 8.86332L150.42 8.64384C151.043 8.38067 151.26 8.01633 151.26 7.23483C151.26 6.14413 150.404 5.71869 148.183 5.7052C147.202 5.69888 146.869 5.83177 147.256 6.0737C147.345 6.1298 147.404 7.19743 147.404 8.77398C147.404 10.3505 147.345 11.4182 147.256 11.4742C146.904 11.694 147.162 11.8493 147.879 11.8493C148.478 11.8493 148.61 11.8093 148.472 11.6693ZM148.294 7.34883V5.99869H149.099C149.792 5.99869 149.946 6.05371 150.211 6.39396C150.975 7.37646 150.264 8.69897 148.973 8.69897H148.294V7.34883ZM161.993 11.5117C162.171 10.8396 162.094 10.7657 161.63 11.1609C161.242 11.4905 161.029 11.5493 160.221 11.5493H159.268V10.1241V8.69897H160.035C160.541 8.69897 160.895 8.78361 161.073 8.94724C161.331 9.18346 161.344 9.16891 161.344 8.64723C161.344 8.04683 161.266 7.99804 160.834 8.3287C160.676 8.44983 160.259 8.54896 159.907 8.54896H159.268V7.27382V5.99869H160.212C161.034 5.99869 161.206 6.04973 161.547 6.39419L161.938 6.78969V6.31918V5.84868H160.079C158.248 5.84868 158.222 5.8532 158.383 6.1575C158.572 6.51377 158.518 11.1643 158.321 11.5868C158.208 11.8294 158.339 11.8493 160.051 11.8493C161.846 11.8493 161.906 11.839 161.993 11.5117ZM54.181 9.26154L52.2675 6.52375L52.2234 8.54896C52.1773 10.6648 52.2579 11.5493 52.4967 11.5493C52.5745 11.5493 52.6383 11.6167 52.6383 11.6993C52.6383 11.7818 52.4047 11.8493 52.1192 11.8493C51.6195 11.8493 51.4396 11.6673 51.7484 11.4742C51.9807 11.329 51.9452 6.04349 51.7114 5.94804C51.6094 5.90639 51.8044 5.867 52.1447 5.8605L52.7635 5.84867L54.4063 8.20436L56.0492 10.5601V8.38438C56.0492 6.8922 55.9933 6.15215 55.8713 6.02869C55.7328 5.88867 55.8235 5.84968 56.2791 5.85323C56.7491 5.85684 56.8136 5.88801 56.6054 6.0107C56.3723 6.14803 56.3458 6.4608 56.3458 9.08144C56.3458 10.6863 56.2893 11.9993 56.2201 11.9993C56.151 11.9993 55.2334 10.7673 54.181 9.26154ZM0.435547 11.7081C0.435547 11.6305 0.502284 11.5252 0.58385 11.4742C0.816103 11.329 0.780641 6.04349 0.54677 5.94804C0.444812 5.90639 0.761811 5.86908 1.25121 5.8651C1.9241 5.85968 2.07776 5.8951 1.8815 6.01073C1.64958 6.14738 1.62197 6.45013 1.62197 8.85647V11.5493H2.44739C3.33532 11.5493 3.75779 11.3874 4.16912 10.8897C4.42487 10.5802 4.42992 10.5799 4.43277 10.8742C4.43438 11.0393 4.39544 11.3262 4.34625 11.5118C4.25939 11.8397 4.20223 11.8493 2.34618 11.8493C1.25118 11.8493 0.435547 11.789 0.435547 11.7081ZM12.8189 11.6752C11.5816 11.2061 10.9651 10.2334 10.9651 8.75023C10.9651 7.43318 11.4058 6.64836 12.4536 6.09925C13.1466 5.73614 13.387 5.68525 14.1157 5.74742C15.5223 5.86743 16.3921 6.60853 16.7634 8.00333C17.1 9.26793 16.4386 10.9384 15.3825 11.4909C14.7998 11.7956 13.4018 11.8962 12.8189 11.6752ZM14.8413 11.3136C15.854 10.7839 16.265 8.44186 15.5827 7.089C15.0115 5.9563 13.6476 5.62826 12.7359 6.40426C12.095 6.94975 11.8549 7.59569 11.8549 8.774C11.8549 9.95231 12.095 10.5982 12.7359 11.1437C13.2929 11.6178 14.1305 11.6854 14.8413 11.3136ZM23.8705 11.6901C23.2315 11.418 22.9776 11.0832 22.9782 10.5134L22.9788 9.97413L23.2887 10.4992C23.7583 11.2946 24.1469 11.5422 24.9319 11.546C25.5068 11.5487 25.6782 11.4816 25.933 11.154C26.102 10.9366 26.2403 10.6757 26.2403 10.5742C26.2403 10.1627 25.5585 9.56062 24.5378 9.07067C23.3343 8.49292 22.8732 7.87128 23.0488 7.06288C23.2588 6.09528 24.5053 5.49228 25.5644 5.84586C26.1774 6.05049 26.3935 6.37799 26.3765 7.07647L26.3644 7.57388L26.1405 7.04883C25.78 6.20388 25.5219 5.99872 24.8192 5.99872C24.3114 5.99872 24.1246 6.07713 23.8782 6.39399C23.7092 6.61139 23.5709 6.92184 23.5709 7.08388C23.5709 7.51656 24.364 8.19235 25.2024 8.47403C26.174 8.80049 26.6852 9.41535 26.6852 10.2576C26.6852 11.1784 26.0876 11.7312 25.0201 11.7978C24.5901 11.8247 24.0727 11.7762 23.8705 11.6901ZM40.3852 11.6264C40.5494 11.5006 41.0695 10.2592 41.6516 8.60392C42.1948 7.05891 42.7073 5.77187 42.7905 5.74382C42.8737 5.71572 43.4311 6.92614 44.0293 8.43353C44.6274 9.94092 45.2408 11.2863 45.3924 11.4233C45.544 11.5603 45.668 11.7122 45.668 11.7608C45.668 11.8095 45.2542 11.8493 44.7485 11.8493C44.0334 11.8493 43.8686 11.8093 44.007 11.6693C44.2572 11.4162 44.2295 11.0792 43.8936 10.2866L43.6023 9.59905H42.6512C41.5675 9.59905 41.4647 9.6762 41.1963 10.691C41.0251 11.3387 41.0335 11.4144 41.2998 11.618C41.568 11.8232 41.5343 11.8397 40.8482 11.8397C40.1753 11.8397 40.1324 11.82 40.3852 11.6264ZM43.567 9.3249C43.5399 9.25661 43.3187 8.68282 43.0755 8.04978C42.8323 7.41673 42.5952 6.89879 42.5486 6.89879C42.5019 6.89879 42.3082 7.38821 42.1182 7.9864C41.9282 8.58458 41.7411 9.15839 41.7024 9.26154C41.6505 9.39995 41.8919 9.44904 42.6243 9.44904C43.17 9.44904 43.5942 9.39321 43.567 9.3249ZM64.8733 11.6595C64.0293 11.3081 63.769 11.0914 63.3763 10.4137C62.8401 9.4882 62.8225 8.12165 63.3346 7.17494C64.3851 5.23279 68.2273 5.24268 68.2035 7.18749L68.197 7.7239L67.9103 7.17487C67.4607 6.31403 66.9623 5.99872 66.0511 5.99872C64.653 5.99872 63.9093 6.96236 63.9093 8.774C63.9093 9.95231 64.1495 10.5982 64.7904 11.1437C65.1749 11.471 65.4149 11.5489 66.034 11.5472C67.4288 11.5436 67.4686 11.51 67.4686 10.3391C67.4686 9.52104 67.4162 9.28308 67.2091 9.16107C67.0121 9.04502 67.164 9.00815 67.8394 9.00815C68.5147 9.00815 68.6666 9.04501 68.4697 9.16107C68.2646 9.28188 68.2101 9.51867 68.2101 10.2893V11.2646L67.654 11.501C66.9274 11.8099 65.4383 11.8948 64.8733 11.6595ZM75.3286 11.7118C75.3286 11.6362 75.4121 11.5462 75.514 11.5119C75.653 11.4651 75.6994 10.785 75.6994 8.79376C75.6994 6.59645 75.661 6.1135 75.4769 5.99571C75.33 5.90166 75.9215 5.85255 77.2195 5.85103L79.1845 5.84832V6.3117V6.77508L78.7282 6.3867C78.349 6.06389 78.1226 5.99834 77.3875 5.99834H76.5031L76.5461 7.23596L76.5892 8.47359L77.0738 8.52083C77.3402 8.54684 77.7676 8.46238 78.0234 8.33331C78.2793 8.20421 78.5117 8.0986 78.5399 8.0986C78.5682 8.0986 78.5913 8.3387 78.5913 8.63216C78.5913 9.15356 78.5838 9.16039 78.2617 8.93218C78.0751 8.79992 77.6248 8.69865 77.2236 8.69865H76.5151V10.1238V11.549H77.4677C78.2761 11.549 78.4893 11.4901 78.8765 11.1606C79.3047 10.7961 79.3328 10.7908 79.3328 11.0733C79.3328 11.8277 79.2753 11.849 77.2407 11.849C76.1807 11.849 75.3286 11.7881 75.3286 11.7118ZM85.9093 11.575C86.1174 11.3424 86.1548 10.9132 86.1548 8.75471C86.1548 6.97456 86.1013 6.15462 85.9768 6.02875C85.8384 5.88874 85.9786 5.85136 86.6071 5.86058C87.0516 5.8669 87.3319 5.90647 87.23 5.94811C87.0911 6.00484 87.0446 6.71669 87.0446 8.78655V11.5493H87.9458C88.7524 11.5493 88.8945 11.5014 89.2986 11.0926C89.547 10.8413 89.7797 10.6657 89.8158 10.7022C89.8519 10.7387 89.8363 11.0118 89.7812 11.309L89.681 11.8494H87.6725C85.736 11.8494 85.6727 11.8395 85.9093 11.575ZM96.4504 11.5203C96.6395 11.2472 96.6843 10.7275 96.6843 8.80578C96.6843 7.45433 96.618 6.30389 96.5308 6.13889C96.3828 5.85918 96.4442 5.84872 98.2363 5.84872H100.095V6.31922V6.78973L99.7043 6.39423C99.3632 6.04925 99.192 5.99874 98.3635 5.99874H97.4138L97.4568 7.23636L97.5 8.47399L97.9669 8.51988C98.2238 8.54508 98.6742 8.46414 98.968 8.34001L99.5021 8.11427V8.65493C99.5021 9.1692 99.4889 9.18345 99.2309 8.94729C99.0521 8.78365 98.6982 8.69903 98.1927 8.69903H97.4258V10.1242V11.5493H98.3784C99.1782 11.5493 99.4017 11.4892 99.7716 11.1743C100.338 10.6924 100.374 10.7008 100.256 11.2868L100.158 11.7743L98.1871 11.8162L96.2165 11.8582L96.4504 11.5203ZM107.513 11.6819C106.875 11.4242 106.62 11.0873 106.629 10.5134C106.637 10.0289 106.656 10.0042 106.815 10.2706C106.912 10.4336 107.205 10.7918 107.467 11.0666C107.893 11.5138 108.016 11.5614 108.638 11.5203C109.196 11.4834 109.395 11.3924 109.638 11.0621C110.138 10.3817 109.87 9.9272 108.597 9.29907C107.109 8.56465 106.769 8.20905 106.769 7.38619C106.769 6.26783 107.743 5.54054 108.937 5.76715C109.639 5.90034 110.18 6.45539 110.18 7.04202C110.18 7.58131 109.953 7.64991 109.828 7.14822C109.663 6.47991 109.158 5.99874 108.624 5.99874C107.92 5.99874 107.679 6.12414 107.423 6.62448C107.032 7.39017 107.432 7.90712 108.845 8.4607C110.173 8.98071 110.687 9.84952 110.268 10.8641C109.917 11.7123 108.576 12.1107 107.513 11.6819Z" fill="#F7FAFD"/>
</svg>
