<svg width="89" height="16" viewBox="0 0 89 16" fill="none" xmlns="http://www.w3.org/2000/svg">
<path d="M27.1433 15.3629C27.2052 14.9014 27.1679 14.7095 27.0081 14.6667C26.8868 14.6343 26.3141 14.4942 25.7355 14.3556C24.5846 14.0797 23.1342 13.3136 23.063 12.9439C23.0383 12.8153 23.5997 12.1823 24.3105 11.5372C25.519 10.4406 25.6215 10.3811 25.8879 10.6222C26.0446 10.764 26.2511 10.88 26.3468 10.88C26.4425 10.88 26.546 10.9555 26.5767 11.0477C26.6462 11.2561 28.2934 11.4383 28.8483 11.299C29.4034 11.1597 29.64 10.6913 29.4102 10.1868C29.2437 9.82133 28.6686 9.44 28.2839 9.44C28.1289 9.44 27.4694 9.17454 26.5917 8.7589C25.3216 8.15743 24.6707 6.86535 24.8534 5.30816C24.9811 4.21937 25.3984 3.40824 26.2064 2.67814C26.9821 1.97719 27.5388 1.67727 28.5249 1.42894C29.1315 1.27618 29.2879 1.16253 29.3623 0.820543C29.5388 0.00951096 29.5514 0 30.4467 0H31.3164L31.2345 0.610704L31.1526 1.2214L32.0896 1.42964C33.016 1.63553 33.8607 2.0083 34.4501 2.4714C34.7153 2.67971 34.7254 2.74605 34.5301 2.99389C33.9102 3.78055 32.426 5.1312 32.2581 5.0615C32.1528 5.01783 31.6848 4.8547 31.218 4.69903C30.4539 4.44422 30.3023 4.43913 29.6982 4.64798C29.1108 4.85108 29.0271 4.93983 29.0271 5.36C29.0271 5.87452 28.9394 5.81541 31.4227 6.97307C32.6468 7.54373 33.5285 8.40804 33.6731 9.17909C33.7337 9.50223 33.7541 10.2253 33.7184 10.7859C33.6612 11.6843 33.5806 11.8943 33.0387 12.5556C32.3211 13.4315 31.182 14.1937 30.387 14.3301C29.1708 14.5388 29.0349 14.6295 28.8844 15.3329L28.7417 16H27.8998H27.0579L27.1433 15.3629ZM16.8391 14.408C16.14 13.9817 15.939 13.5365 16.0279 12.6115C16.1771 11.0581 17.7095 10.1725 19.2928 10.7246C19.9107 10.94 20.309 11.6397 20.306 12.5047C20.3027 13.4739 20.0222 13.942 19.1941 14.36C18.3188 14.8018 17.5118 14.8183 16.8391 14.408ZM52.9956 14.4897C51.5998 14.0532 50.4283 13.0236 50.0611 11.9106C49.8334 11.2208 49.9026 10.2144 50.3683 7.44C51.0063 3.63902 51.2003 2.47154 51.2787 1.96L51.3585 1.44H53.451H55.5434L55.4327 1.96C54.9621 4.17112 54.0845 9.73532 54.1653 9.99613C54.2204 10.1743 54.405 10.518 54.5754 10.76C54.8434 11.1406 54.9939 11.2 55.6896 11.2C56.6977 11.2 57.3442 10.8315 57.6398 10.0883C57.8987 9.43744 58.2119 7.98137 58.7087 5.12001C58.8997 4.02 59.1385 2.76 59.2394 2.32L59.4229 1.52L61.3826 1.47507C62.8934 1.44042 63.3417 1.47688 63.3394 1.63507C63.3326 2.12545 62.2706 8.3243 61.8999 10.038C61.4067 12.318 60.0547 13.8453 57.9696 14.4779C56.9874 14.7759 53.934 14.7831 52.9956 14.4897ZM0.153321 14.48C0.181001 14.48 0.880523 10.5747 1.0297 9.58727C1.14378 8.83226 1.34543 7.68026 1.47782 7.02727C1.61022 6.37428 1.84419 5.12001 1.99777 4.24001C2.15135 3.36001 2.32425 2.388 2.38199 2.08L2.48698 1.52001L6.15842 1.53392C9.79387 1.5477 9.83926 1.55206 10.7897 1.98149C11.7961 2.43618 13.0449 3.53134 13.6387 4.48C13.9528 4.98181 13.9893 5.25647 13.9893 7.12336C13.9893 9.15321 13.9758 9.23404 13.466 10.2698C12.4723 12.2886 10.853 13.5897 8.55003 14.2198C8.19279 14.3175 6.19648 14.4136 4.03065 14.4374C1.89693 14.4608 0.152136 14.48 0.153321 14.48ZM7.68628 10.6971C8.28455 10.496 9.37789 9.43767 9.60518 8.83977C9.83563 8.23357 9.77308 6.77955 9.49112 6.18819C9.14463 5.4615 8.10926 4.96001 6.95542 4.96001C6.47904 4.96001 6.03918 5.04106 5.97796 5.14012C5.88543 5.28986 5.48792 7.39921 5.00933 10.28L4.90965 10.88H6.02607C6.64009 10.88 7.38719 10.7977 7.68628 10.6971ZM36.3072 14.1249C36.3089 13.7048 36.7121 11.2114 37.1036 9.20001C37.292 8.23201 37.5501 6.75601 37.677 5.92C37.804 5.084 38.0389 3.75201 38.199 2.96L38.4901 1.52001L42.0774 1.52968C45.9765 1.5402 46.2615 1.59309 47.348 2.50745C48.3608 3.35975 48.7386 5.04742 48.2683 6.61754C48.0381 7.38592 46.7948 8.73113 46.1697 8.88802C45.936 8.94668 45.7448 9.08162 45.7448 9.18785C45.7448 9.36383 47.4669 13.3026 47.8304 13.9578C47.9151 14.1106 47.9845 14.2726 47.9845 14.3178C47.9845 14.363 46.9384 14.4 45.6598 14.4C43.9414 14.4 43.3181 14.3478 43.27 14.2C42.1558 10.7741 41.486 9.32606 41.1643 9.64778C41.04 9.77216 40.7936 10.8698 40.4748 12.72L40.1992 14.32L38.2526 14.3649C36.4755 14.4059 36.3062 14.3851 36.3072 14.1249ZM43.5451 6.88698C43.8189 6.87107 44.305 6.21274 44.305 5.85773C44.305 5.20234 43.8359 4.84321 42.8415 4.73729L41.938 4.64105L41.7617 5.65364C41.6647 6.21056 41.5854 6.74505 41.5854 6.84138C41.5854 7.08842 42.0382 7.15345 42.7852 7.01368C43.1372 6.94783 43.4791 6.8908 43.5451 6.88698ZM63.8222 14.1718C63.8222 14.0462 63.9575 13.2362 64.1229 12.3718C64.2882 11.5073 64.5823 9.90001 64.7764 8.80001C64.9705 7.70001 65.2621 6.11601 65.4245 5.28001C65.5868 4.44401 65.7646 3.4 65.8196 2.96C65.8745 2.52001 65.9548 1.99014 65.9981 1.78252L66.0768 1.40503L69.5489 1.47027C72.9891 1.53491 73.029 1.53967 73.9008 1.98891C74.874 2.4904 75.5906 3.15508 75.8262 3.77489C75.9111 3.99816 75.9805 4.82702 75.9805 5.6168C75.9805 7.32518 75.7062 7.9995 74.6645 8.85168C73.698 9.64235 72.2607 10.0821 70.2754 10.1946C69.3658 10.2461 68.621 10.3314 68.6204 10.3841C68.6173 10.6036 68.2915 12.627 68.1214 13.48L67.9379 14.4H65.8801C64.2047 14.4 63.8222 14.3576 63.8222 14.1718ZM71.2955 6.79028C71.8545 6.56288 72.0848 6.03496 71.9168 5.36574C71.8431 5.07198 71.6521 4.92682 71.1674 4.79629C70.8096 4.69994 70.325 4.64336 70.0904 4.67055C69.6969 4.71615 69.6483 4.80621 69.4634 5.83099C69.3034 6.71753 69.3031 6.9675 69.4621 7.06834C69.6972 7.21742 70.5714 7.08485 71.2955 6.79028ZM78.5895 13.64C78.6735 12.9313 79.1616 10.0483 79.7339 6.88001C80.1382 4.64156 80.2393 4.80001 78.4061 4.80001H76.8323L77.0481 3.32001C77.1669 2.50601 77.2969 1.75001 77.3371 1.64001C77.3937 1.48543 78.6302 1.44001 82.7818 1.44001H88.1533L88.0596 1.96C88.008 2.24601 87.8747 2.98401 87.7633 3.60001L87.5608 4.72001L85.9782 4.84217C85.1077 4.90936 84.3473 5.04242 84.2883 5.13786C84.2294 5.2333 84.058 6.07833 83.9076 7.0157C83.7572 7.95307 83.5004 9.44001 83.337 10.32C83.1735 11.2 82.9489 12.478 82.8378 13.16L82.6359 14.4H80.5677H78.4995L78.5895 13.64ZM16.4689 9.46822C16.4689 9.39574 16.7181 7.97373 17.0227 6.30821C17.3272 4.64269 17.6199 3.028 17.6731 2.72001C17.9181 1.30127 17.6668 1.44 19.9915 1.44C21.1336 1.44 22.0681 1.47121 22.0681 1.50935C22.0681 1.54751 21.8917 2.53749 21.6762 3.70935C21.4606 4.88121 21.2079 6.344 21.1146 6.96C21.0213 7.576 20.8665 8.422 20.7707 8.84L20.5964 9.6H18.5327C17.3976 9.6 16.4689 9.54068 16.4689 9.46822Z" fill="#F7FAFD"/>
</svg>
