<svg width="65" height="16" viewBox="0 0 65 16" fill="none" xmlns="http://www.w3.org/2000/svg">
<path d="M15.1931 15.8755C13.7145 15.3964 12.7132 14.4947 12.0107 13.0097C11.6382 12.2223 11.5947 11.9398 11.5947 10.3069C11.5947 8.74627 11.647 8.37096 11.9576 7.70323C12.5483 6.43341 13.3287 5.62119 14.5142 5.04253C15.521 4.5511 15.6885 4.51931 17.2688 4.51931C18.7865 4.51931 19.0404 4.56265 19.86 4.96172C21.4182 5.72038 22.403 7.19798 22.686 9.20189C22.9879 11.3397 22.363 13.3534 21.0153 14.5851C19.8846 15.6184 19.0685 15.9124 17.1922 15.9624C16.3126 15.9858 15.413 15.9467 15.1931 15.8755ZM18.1245 14.943C18.297 14.7915 18.5805 14.3517 18.7546 13.9657C19.3474 12.6516 19.3717 8.4186 18.7956 6.82074C18.0338 4.70777 16.0863 4.67408 15.3663 6.76139C15.0754 7.60468 14.9504 11.6316 15.1819 12.7063C15.4359 13.8861 15.9455 14.8679 16.4483 15.1463C16.9478 15.4229 17.6795 15.3341 18.1245 14.943ZM34.7864 15.8535C34.3478 15.7765 33.8297 15.674 33.635 15.6256L33.2811 15.5375L33.233 8.91846C33.1969 3.95358 33.1345 2.21195 32.9831 1.94946C32.863 1.74126 32.5552 1.55747 32.2234 1.49575C31.5946 1.37878 31.473 0.999956 32.0254 0.878562C32.4143 0.793102 36.6002 0.000346343 36.6644 9.51139e-09C36.6858 -0.000121675 36.682 1.16736 36.6561 2.59438L36.6088 5.18899L37.4557 4.89896C41.2073 3.6142 44.1702 6.47647 43.6368 10.87C43.3824 12.9647 42.2938 14.5374 40.4881 15.4191C39.4868 15.908 39.3254 15.9375 37.5066 15.9646C36.4491 15.9803 35.225 15.9304 34.7864 15.8535ZM38.5675 14.9198C39.0995 14.5049 39.7496 13.259 39.9816 12.2097C40.0885 11.7262 40.1494 10.631 40.1181 9.75193C40.0228 7.06888 39.1161 5.77107 37.423 5.8941L36.7033 5.94643L36.6609 10.5844L36.6185 15.2224H37.399C37.9248 15.2224 38.3061 15.1237 38.5675 14.9198ZM48.0713 15.631C43.7023 13.8084 43.4768 7.14252 47.714 5.0743C49.6006 4.15346 51.9438 4.28685 53.2885 5.3916C54.0912 6.05108 54.8585 7.63426 54.9708 8.86307L55.0594 9.83123H51.5987H48.1381V10.5248C48.1381 11.9445 48.8635 13.233 50.0527 13.9258C51.0233 14.4911 52.8345 14.5245 53.8398 13.9955C54.3889 13.7066 54.5349 13.6831 54.6828 13.8599C54.9105 14.1319 54.0922 14.8761 52.89 15.4904C52.1941 15.8461 51.8053 15.9255 50.537 15.9711C49.2036 16.0191 48.9019 15.9777 48.0713 15.631ZM51.4642 7.73023C51.376 6.36921 50.9797 5.42802 50.438 5.29322C49.2769 5.00428 48.5646 5.93298 48.2041 8.20594L48.0972 8.87984H49.8179H51.5386L51.4642 7.73023ZM56.9341 15.7269L55.8946 15.4603L55.7808 13.9539C55.7183 13.1254 55.698 12.3583 55.7359 12.2493C55.8852 11.8186 56.2773 12.0926 56.6802 12.909C57.1977 13.9577 58.1594 14.8511 58.9237 14.9933C60.3471 15.258 61.3321 14.5936 61.3321 13.3688C61.3321 12.7522 61.2584 12.5896 60.8114 12.2196C60.5249 11.9825 59.6725 11.5444 58.917 11.2459C57.264 10.5929 56.4223 9.9284 56.1635 9.07191C55.7372 7.66108 56.0708 6.54939 57.2329 5.50846C58.0141 4.80867 59.1786 4.44003 60.6079 4.44003C61.6059 4.44003 63.445 4.80114 63.6778 5.04282C63.7365 5.10375 63.8084 5.7579 63.8377 6.49653C63.8835 7.65218 63.8536 7.84701 63.6228 7.89337C63.4336 7.93138 63.2546 7.72316 63.0152 7.18663C62.4438 5.90583 61.5703 5.23285 60.4792 5.23285C59.3953 5.23285 58.7147 6.47957 59.2223 7.53503C59.4717 8.05347 60.0844 8.41453 62.2103 9.29568C63.0615 9.64849 63.897 10.3394 64.219 10.9568C64.5612 11.6131 64.5168 13.2038 64.1355 13.9449C63.7159 14.7604 62.79 15.4958 61.8229 15.7819C60.7657 16.0946 58.2575 16.0665 56.9341 15.7269ZM9.00344e-06 15.4629C9.00344e-06 15.1409 0.0787267 15.0639 0.40777 15.0639C1.09493 15.0639 1.71723 14.6398 1.91884 14.0341C2.40104 12.5854 2.37975 2.96292 1.89212 1.95718C1.66871 1.49636 1.17732 1.18426 0.439806 1.03473C0.138301 0.973606 6.30241e-06 0.84679 6.30241e-06 0.631455C6.30241e-06 0.323537 0.127334 0.317349 6.45995 0.317349C12.203 0.317349 12.9307 0.345144 13.017 0.568154C13.1735 0.972606 13.1285 4.75715 12.9672 4.75715C12.8864 4.75715 12.7207 4.79507 12.5989 4.8414C12.4485 4.89859 12.2645 4.65557 12.0257 4.08424C11.5586 2.96701 10.8045 2.08666 10.0068 1.72743C9.1196 1.32792 6.16405 1.2914 6.01439 1.6781C5.961 1.81605 5.91731 3.20746 5.91731 4.7701V7.6113H6.88482C8.22235 7.6113 8.73138 7.31387 9.22558 6.2436C9.50758 5.63288 9.70567 5.38914 9.89122 5.42458C10.1241 5.46904 10.1554 5.78478 10.1554 8.08916C10.1554 10.6794 10.1521 10.7038 9.79555 10.754C9.55027 10.7885 9.43571 10.7234 9.43571 10.5495C9.43571 10.0577 8.78845 9.04265 8.3226 8.8038C8.05378 8.66597 7.43786 8.56268 6.88482 8.56268H5.91731L5.92052 10.4258C5.92477 12.8627 6.12756 14.2328 6.54545 14.6472C6.74172 14.8417 7.17234 15.0037 7.63325 15.0562C8.26033 15.1276 8.39618 15.1996 8.39618 15.4602C8.39618 15.7682 8.27535 15.7786 4.19809 15.8197L0 15.8619L9.00344e-06 15.4629ZM22.8696 15.5356C22.8696 15.3041 23.0065 15.1874 23.3602 15.1172C24.324 14.9261 24.3889 14.6299 24.3889 10.4191V6.63252L23.9402 6.24983C23.6934 6.03936 23.3516 5.86715 23.1805 5.86715C23.0095 5.86715 22.8696 5.76013 22.8696 5.62931C22.8696 5.4985 22.8944 5.39146 22.9246 5.39146C22.9549 5.39146 24.0456 5.1774 25.3485 4.91577C26.6513 4.65414 27.7421 4.44007 27.7723 4.44007C27.8026 4.44007 27.8305 4.99306 27.8344 5.66894L27.8415 6.89782L28.1482 6.3224C28.5102 5.64319 29.2872 4.95883 30.0618 4.63709C30.6403 4.39679 32.0472 4.43327 32.3013 4.69512C32.4044 4.80128 31.507 7.4143 31.255 7.74193C31.2333 7.77011 30.9768 7.67088 30.6851 7.52128C30.0681 7.20493 28.7009 7.14905 28.2017 7.41978C27.9056 7.58037 27.8401 7.80179 27.7415 8.97464C27.6783 9.7268 27.6991 11.2646 27.7876 12.3919C27.9605 14.5935 28.1526 15.0639 28.8786 15.0639C29.4507 15.0639 29.7465 15.2318 29.7465 15.5565C29.7465 15.8417 29.5751 15.8567 26.3081 15.8567C22.9621 15.8567 22.8696 15.8483 22.8696 15.5356Z" fill="#F7FAFD"/>
</svg>
